<mxfile host="app.diagrams.net" agent="Mozilla/5.0 (X11; Ubuntu; Linux x86_64; rv:141.0) Gecko/20100101 Firefox/141.0" version="28.1.0">
  <diagram name="Page-1" id="rSA3oBgp-bzhauGycAeh">
    <mxGraphModel dx="1240" dy="695" grid="1" gridSize="10" guides="1" tooltips="1" connect="1" arrows="1" fold="1" page="1" pageScale="1" pageWidth="1920" pageHeight="1200" math="0" shadow="0">
      <root>
        <mxCell id="0" />
        <mxCell id="1" parent="0" />
        <mxCell id="pZUrnxTPKzInIpWnT83h-1" value="&lt;font style=&quot;font-size: 30px;&quot;&gt;&lt;b&gt;DIAGRAM&lt;/b&gt;&lt;/font&gt;" style="text;html=1;align=center;verticalAlign=middle;resizable=0;points=[];autosize=1;strokeColor=none;fillColor=none;" vertex="1" parent="1">
          <mxGeometry x="800" y="145" width="170" height="50" as="geometry" />
        </mxCell>
        <mxCell id="pZUrnxTPKzInIpWnT83h-3" value="ABP_SLAVE" style="rounded=1;whiteSpace=wrap;html=1;fontStyle=1;strokeWidth=2;" vertex="1" parent="1">
          <mxGeometry x="980" y="310" width="120" height="280" as="geometry" />
        </mxCell>
        <mxCell id="pZUrnxTPKzInIpWnT83h-4" value="APB_MASTER" style="rounded=1;whiteSpace=wrap;html=1;fontStyle=1;strokeWidth=2;" vertex="1" parent="1">
          <mxGeometry x="700" y="310" width="120" height="280" as="geometry" />
        </mxCell>
        <mxCell id="pZUrnxTPKzInIpWnT83h-5" value="" style="endArrow=classic;html=1;rounded=0;" edge="1" parent="1">
          <mxGeometry width="50" height="50" relative="1" as="geometry">
            <mxPoint x="820" y="360" as="sourcePoint" />
            <mxPoint x="980" y="360" as="targetPoint" />
          </mxGeometry>
        </mxCell>
        <mxCell id="pZUrnxTPKzInIpWnT83h-6" value="PPROT" style="text;html=1;align=center;verticalAlign=middle;resizable=0;points=[];autosize=1;strokeColor=none;fillColor=none;" vertex="1" parent="1">
          <mxGeometry x="865" y="420" width="60" height="30" as="geometry" />
        </mxCell>
        <mxCell id="pZUrnxTPKzInIpWnT83h-7" value="" style="endArrow=classic;html=1;rounded=0;" edge="1" parent="1">
          <mxGeometry width="50" height="50" relative="1" as="geometry">
            <mxPoint x="820" y="440" as="sourcePoint" />
            <mxPoint x="980" y="440" as="targetPoint" />
          </mxGeometry>
        </mxCell>
        <mxCell id="pZUrnxTPKzInIpWnT83h-8" value="PADDR" style="text;html=1;align=center;verticalAlign=middle;resizable=0;points=[];autosize=1;strokeColor=none;fillColor=none;" vertex="1" parent="1">
          <mxGeometry x="860" y="320" width="70" height="30" as="geometry" />
        </mxCell>
        <mxCell id="pZUrnxTPKzInIpWnT83h-12" value="" style="endArrow=classic;html=1;rounded=0;" edge="1" parent="1">
          <mxGeometry width="50" height="50" relative="1" as="geometry">
            <mxPoint x="820" y="400" as="sourcePoint" />
            <mxPoint x="980" y="400" as="targetPoint" />
          </mxGeometry>
        </mxCell>
        <mxCell id="pZUrnxTPKzInIpWnT83h-13" value="PENABLE" style="text;html=1;align=center;verticalAlign=middle;resizable=0;points=[];autosize=1;strokeColor=none;fillColor=none;" vertex="1" parent="1">
          <mxGeometry x="855" y="380" width="80" height="30" as="geometry" />
        </mxCell>
        <mxCell id="pZUrnxTPKzInIpWnT83h-14" value="" style="endArrow=classic;html=1;rounded=0;" edge="1" parent="1">
          <mxGeometry width="50" height="50" relative="1" as="geometry">
            <mxPoint x="820" y="380" as="sourcePoint" />
            <mxPoint x="980" y="380" as="targetPoint" />
          </mxGeometry>
        </mxCell>
        <mxCell id="pZUrnxTPKzInIpWnT83h-15" value="PSEL" style="text;html=1;align=center;verticalAlign=middle;resizable=0;points=[];autosize=1;strokeColor=none;fillColor=none;" vertex="1" parent="1">
          <mxGeometry x="870" y="358" width="50" height="30" as="geometry" />
        </mxCell>
        <mxCell id="pZUrnxTPKzInIpWnT83h-16" value="" style="endArrow=classic;html=1;rounded=0;" edge="1" parent="1">
          <mxGeometry width="50" height="50" relative="1" as="geometry">
            <mxPoint x="820" y="420" as="sourcePoint" />
            <mxPoint x="980" y="420" as="targetPoint" />
          </mxGeometry>
        </mxCell>
        <mxCell id="pZUrnxTPKzInIpWnT83h-17" value="PDATA" style="text;html=1;align=center;verticalAlign=middle;resizable=0;points=[];autosize=1;strokeColor=none;fillColor=none;" vertex="1" parent="1">
          <mxGeometry x="865" y="340" width="60" height="30" as="geometry" />
        </mxCell>
        <mxCell id="pZUrnxTPKzInIpWnT83h-18" value="" style="endArrow=classic;html=1;rounded=0;" edge="1" parent="1">
          <mxGeometry width="50" height="50" relative="1" as="geometry">
            <mxPoint x="820" y="342.81" as="sourcePoint" />
            <mxPoint x="980" y="342.81" as="targetPoint" />
          </mxGeometry>
        </mxCell>
        <mxCell id="pZUrnxTPKzInIpWnT83h-19" value="PWRITE" style="text;html=1;align=center;verticalAlign=middle;resizable=0;points=[];autosize=1;strokeColor=none;fillColor=none;" vertex="1" parent="1">
          <mxGeometry x="860" y="400" width="70" height="30" as="geometry" />
        </mxCell>
        <mxCell id="pZUrnxTPKzInIpWnT83h-20" value="" style="endArrow=classic;html=1;rounded=0;" edge="1" parent="1">
          <mxGeometry width="50" height="50" relative="1" as="geometry">
            <mxPoint x="820" y="459.81" as="sourcePoint" />
            <mxPoint x="980" y="459.81" as="targetPoint" />
          </mxGeometry>
        </mxCell>
        <mxCell id="pZUrnxTPKzInIpWnT83h-23" value="PSTRB" style="text;html=1;align=center;verticalAlign=middle;resizable=0;points=[];autosize=1;strokeColor=none;fillColor=none;" vertex="1" parent="1">
          <mxGeometry x="865" y="440" width="60" height="30" as="geometry" />
        </mxCell>
        <mxCell id="pZUrnxTPKzInIpWnT83h-24" value="" style="endArrow=classic;html=1;rounded=0;" edge="1" parent="1">
          <mxGeometry width="50" height="50" relative="1" as="geometry">
            <mxPoint x="980" y="520" as="sourcePoint" />
            <mxPoint x="820" y="520" as="targetPoint" />
          </mxGeometry>
        </mxCell>
        <mxCell id="pZUrnxTPKzInIpWnT83h-25" value="" style="endArrow=classic;html=1;rounded=0;" edge="1" parent="1">
          <mxGeometry width="50" height="50" relative="1" as="geometry">
            <mxPoint x="980" y="540" as="sourcePoint" />
            <mxPoint x="820" y="540" as="targetPoint" />
          </mxGeometry>
        </mxCell>
        <mxCell id="pZUrnxTPKzInIpWnT83h-26" value="" style="endArrow=classic;html=1;rounded=0;" edge="1" parent="1">
          <mxGeometry width="50" height="50" relative="1" as="geometry">
            <mxPoint x="980" y="560" as="sourcePoint" />
            <mxPoint x="820" y="560" as="targetPoint" />
          </mxGeometry>
        </mxCell>
        <mxCell id="pZUrnxTPKzInIpWnT83h-28" value="PRDATA" style="text;html=1;align=center;verticalAlign=middle;resizable=0;points=[];autosize=1;strokeColor=none;fillColor=none;" vertex="1" parent="1">
          <mxGeometry x="860" y="500" width="70" height="30" as="geometry" />
        </mxCell>
        <mxCell id="pZUrnxTPKzInIpWnT83h-29" value="PREADY" style="text;html=1;align=center;verticalAlign=middle;resizable=0;points=[];autosize=1;strokeColor=none;fillColor=none;" vertex="1" parent="1">
          <mxGeometry x="865" y="520" width="70" height="30" as="geometry" />
        </mxCell>
        <mxCell id="pZUrnxTPKzInIpWnT83h-30" value="PSLVERR" style="text;html=1;align=center;verticalAlign=middle;resizable=0;points=[];autosize=1;strokeColor=none;fillColor=none;" vertex="1" parent="1">
          <mxGeometry x="855" y="540" width="80" height="30" as="geometry" />
        </mxCell>
        <mxCell id="pZUrnxTPKzInIpWnT83h-35" value="&lt;font style=&quot;font-size: 30px;&quot;&gt;&lt;b&gt;FSM&lt;/b&gt;&lt;/font&gt;" style="text;html=1;align=center;verticalAlign=middle;resizable=0;points=[];autosize=1;strokeColor=none;fillColor=none;" vertex="1" parent="1">
          <mxGeometry x="1466" y="145" width="90" height="50" as="geometry" />
        </mxCell>
        <mxCell id="pZUrnxTPKzInIpWnT83h-36" value="&lt;b&gt;&lt;font style=&quot;font-size: 16px;&quot;&gt;IDLE&lt;/font&gt;&lt;/b&gt;&lt;br&gt;&lt;b&gt;&lt;br&gt;PSEL&lt;/b&gt; = 0&lt;br&gt;&lt;b&gt;PENABLE&lt;/b&gt; = 0" style="ellipse;whiteSpace=wrap;html=1;strokeWidth=2;" vertex="1" parent="1">
          <mxGeometry x="1440" y="240" width="130" height="90" as="geometry" />
        </mxCell>
        <mxCell id="pZUrnxTPKzInIpWnT83h-37" value="&lt;b&gt;&lt;font style=&quot;font-size: 16px;&quot;&gt;SETUP&lt;/font&gt;&lt;/b&gt;&lt;br&gt;&lt;b&gt;&lt;br&gt;PSEL&lt;/b&gt; = 1&lt;br&gt;&lt;b&gt;PENABLE&lt;/b&gt; = 0" style="ellipse;whiteSpace=wrap;html=1;strokeWidth=2;" vertex="1" parent="1">
          <mxGeometry x="1440" y="400" width="130" height="100" as="geometry" />
        </mxCell>
        <mxCell id="pZUrnxTPKzInIpWnT83h-38" value="&lt;b&gt;&lt;font style=&quot;font-size: 16px;&quot;&gt;ACCESS&lt;/font&gt;&lt;/b&gt;&lt;br&gt;&lt;b&gt;&lt;br&gt;PSEL&lt;/b&gt; = 1&lt;br&gt;&lt;b&gt;PENABLE&lt;/b&gt; = 1" style="ellipse;whiteSpace=wrap;html=1;strokeWidth=2;" vertex="1" parent="1">
          <mxGeometry x="1440" y="555" width="130" height="90" as="geometry" />
        </mxCell>
        <mxCell id="pZUrnxTPKzInIpWnT83h-39" value="" style="endArrow=classic;html=1;rounded=0;entryX=0.5;entryY=0;entryDx=0;entryDy=0;exitX=0.5;exitY=1;exitDx=0;exitDy=0;" edge="1" parent="1" source="pZUrnxTPKzInIpWnT83h-36" target="pZUrnxTPKzInIpWnT83h-37">
          <mxGeometry width="50" height="50" relative="1" as="geometry">
            <mxPoint x="1410" y="390" as="sourcePoint" />
            <mxPoint x="1460" y="350" as="targetPoint" />
          </mxGeometry>
        </mxCell>
        <mxCell id="pZUrnxTPKzInIpWnT83h-40" value="Transfer" style="text;html=1;align=center;verticalAlign=middle;resizable=0;points=[];autosize=1;strokeColor=none;fillColor=none;" vertex="1" parent="1">
          <mxGeometry x="1496" y="350" width="70" height="30" as="geometry" />
        </mxCell>
        <mxCell id="pZUrnxTPKzInIpWnT83h-41" value="" style="endArrow=classic;html=1;rounded=0;entryX=0.5;entryY=0;entryDx=0;entryDy=0;exitX=0.5;exitY=1;exitDx=0;exitDy=0;" edge="1" parent="1" source="pZUrnxTPKzInIpWnT83h-37" target="pZUrnxTPKzInIpWnT83h-38">
          <mxGeometry width="50" height="50" relative="1" as="geometry">
            <mxPoint x="1260" y="460" as="sourcePoint" />
            <mxPoint x="1310" y="410" as="targetPoint" />
          </mxGeometry>
        </mxCell>
        <mxCell id="pZUrnxTPKzInIpWnT83h-46" value="" style="endArrow=classic;html=1;rounded=0;exitX=1;exitY=0.5;exitDx=0;exitDy=0;edgeStyle=orthogonalEdgeStyle;curved=1;entryX=1;entryY=0;entryDx=0;entryDy=0;" edge="1" parent="1" source="pZUrnxTPKzInIpWnT83h-38" target="pZUrnxTPKzInIpWnT83h-38">
          <mxGeometry width="50" height="50" relative="1" as="geometry">
            <mxPoint x="1589.9999999999975" y="605" as="sourcePoint" />
            <mxPoint x="1560" y="530" as="targetPoint" />
            <Array as="points">
              <mxPoint x="1610" y="600" />
              <mxPoint x="1610" y="550" />
              <mxPoint x="1551" y="550" />
            </Array>
          </mxGeometry>
        </mxCell>
        <mxCell id="pZUrnxTPKzInIpWnT83h-48" value="&lt;b&gt;PREADY = 0&lt;/b&gt;" style="text;whiteSpace=wrap;html=1;" vertex="1" parent="1">
          <mxGeometry x="1540" y="530" width="110" height="40" as="geometry" />
        </mxCell>
        <mxCell id="pZUrnxTPKzInIpWnT83h-49" value="" style="endArrow=classic;html=1;rounded=0;exitX=1;exitY=1;exitDx=0;exitDy=0;edgeStyle=orthogonalEdgeStyle;curved=1;entryX=1;entryY=0;entryDx=0;entryDy=0;" edge="1" parent="1" source="pZUrnxTPKzInIpWnT83h-38" target="pZUrnxTPKzInIpWnT83h-37">
          <mxGeometry width="50" height="50" relative="1" as="geometry">
            <mxPoint x="1720" y="610" as="sourcePoint" />
            <mxPoint x="1670" y="390" as="targetPoint" />
            <Array as="points">
              <mxPoint x="1671" y="632" />
              <mxPoint x="1671" y="390" />
              <mxPoint x="1551" y="390" />
            </Array>
          </mxGeometry>
        </mxCell>
        <mxCell id="pZUrnxTPKzInIpWnT83h-50" value="&lt;b&gt;PREADY = 1&amp;nbsp;&lt;/b&gt;&lt;br&gt;and Transfer" style="text;whiteSpace=wrap;html=1;" vertex="1" parent="1">
          <mxGeometry x="1570" y="395" width="170" height="40" as="geometry" />
        </mxCell>
        <mxCell id="pZUrnxTPKzInIpWnT83h-51" value="" style="endArrow=classic;html=1;rounded=0;exitX=0;exitY=0.5;exitDx=0;exitDy=0;entryX=0;entryY=0.5;entryDx=0;entryDy=0;edgeStyle=orthogonalEdgeStyle;curved=1;" edge="1" parent="1" source="pZUrnxTPKzInIpWnT83h-38" target="pZUrnxTPKzInIpWnT83h-36">
          <mxGeometry width="50" height="50" relative="1" as="geometry">
            <mxPoint x="1300" y="570" as="sourcePoint" />
            <mxPoint x="1350" y="520" as="targetPoint" />
            <Array as="points">
              <mxPoint x="1310" y="600" />
              <mxPoint x="1310" y="285" />
            </Array>
          </mxGeometry>
        </mxCell>
        <mxCell id="pZUrnxTPKzInIpWnT83h-52" value="&lt;b&gt;PREADY = 1&amp;nbsp;&lt;/b&gt;&lt;br&gt;and no Transfer" style="text;whiteSpace=wrap;html=1;" vertex="1" parent="1">
          <mxGeometry x="1320" y="370" width="170" height="40" as="geometry" />
        </mxCell>
        <mxCell id="pZUrnxTPKzInIpWnT83h-53" value="" style="endArrow=classic;html=1;rounded=0;exitX=1;exitY=0.5;exitDx=0;exitDy=0;edgeStyle=orthogonalEdgeStyle;curved=1;entryX=1;entryY=0;entryDx=0;entryDy=0;" edge="1" parent="1" source="pZUrnxTPKzInIpWnT83h-36" target="pZUrnxTPKzInIpWnT83h-36">
          <mxGeometry width="50" height="50" relative="1" as="geometry">
            <mxPoint x="1550" y="240" as="sourcePoint" />
            <mxPoint x="1550" y="230" as="targetPoint" />
            <Array as="points">
              <mxPoint x="1620" y="285" />
              <mxPoint x="1620" y="230" />
              <mxPoint x="1551" y="230" />
            </Array>
          </mxGeometry>
        </mxCell>
        <mxCell id="pZUrnxTPKzInIpWnT83h-54" value="No Transfer" style="text;html=1;align=center;verticalAlign=middle;resizable=0;points=[];autosize=1;strokeColor=none;fillColor=none;" vertex="1" parent="1">
          <mxGeometry x="1546" y="208" width="90" height="30" as="geometry" />
        </mxCell>
      </root>
    </mxGraphModel>
  </diagram>
</mxfile>
